<?xml version="1.0" standalone="no"?>
<!DOCTYPE svg PUBLIC "-//W3C//DTD SVG 20010904//EN"
 "http://www.w3.org/TR/2001/REC-SVG-20010904/DTD/svg10.dtd">
<svg version="1.0" xmlns="http://www.w3.org/2000/svg"
 width="150.000000pt" height="150.000000pt" viewBox="0 0 150.000000 150.000000"
 preserveAspectRatio="xMidYMid meet">
<metadata>
Created by potrace 1.14, written by Peter Selinger 2001-2017
</metadata>
<g transform="translate(0.000000,150.000000) scale(0.100000,-0.100000)"
fill="#000000" stroke="none">
<path d="M615 1369 c-4 -6 -5 -12 -2 -15 2 -3 7 2 10 11 7 17 1 20 -8 4z"/>
<path d="M759 1375 c-1 -3 -2 -10 -3 -17 0 -6 -7 -13 -15 -16 -10 -3 -12 1 -8
14 7 18 6 18 -7 2 -7 -10 -16 -18 -19 -18 -4 0 -4 8 -1 18 5 15 4 15 -8 1 -17
-21 -120 -18 -158 6 -12 7 -13 6 -3 -6 11 -13 7 -15 -30 -15 -23 0 -45 4 -49
10 -5 7 -8 7 -8 -1 0 -7 -4 -13 -10 -13 -5 0 -7 8 -4 18 5 16 5 16 -6 0 -11
-19 -63 -22 -52 -3 4 6 1 6 -9 -1 -8 -6 -38 -10 -66 -9 -29 0 -53 -3 -53 -7 0
-4 -5 -8 -11 -8 -16 0 -59 -50 -71 -82 -5 -16 -14 -25 -20 -22 -5 3 -4 -3 3
-14 11 -17 10 -24 -2 -38 -8 -10 -9 -15 -4 -12 7 4 11 -27 11 -90 0 -74 -4
-100 -16 -110 -13 -12 -13 -13 3 -8 22 7 22 -3 -1 -20 -16 -13 -16 -14 2 -7
13 4 17 2 14 -8 -3 -8 -10 -14 -16 -14 -5 0 -14 -3 -18 -7 -3 -4 3 -6 15 -3
11 2 21 0 21 -6 0 -5 -6 -9 -12 -9 -8 0 -9 -3 -3 -8 16 -11 17 -42 3 -60 -7
-9 -8 -13 -3 -10 19 11 16 -41 -3 -52 -16 -11 -16 -11 1 -6 9 3 17 1 17 -4 0
-6 -6 -10 -12 -10 -9 0 -9 -3 -2 -8 6 -4 10 -51 10 -117 0 -86 -4 -113 -16
-123 -13 -12 -13 -13 2 -8 23 7 23 -3 1 -20 -17 -13 -17 -14 1 -7 13 4 17 2
14 -8 -3 -8 -10 -14 -16 -14 -5 0 -14 -3 -18 -7 -3 -4 3 -6 15 -3 22 4 29 -10
9 -18 -10 -4 -10 -6 0 -6 6 -1 12 -6 12 -12 0 -5 -5 -7 -12 -3 -8 5 -8 3 -2
-7 12 -19 12 -89 0 -89 -5 0 -2 -6 8 -13 9 -7 18 -22 19 -34 0 -12 3 -20 6
-18 2 3 20 -12 39 -32 20 -21 32 -32 28 -25 -4 6 -2 12 3 12 6 0 11 -3 11 -8
0 -4 47 -7 105 -6 59 1 105 -3 105 -8 0 -5 -4 -7 -8 -4 -5 3 -9 -1 -9 -8 0
-11 4 -12 18 -3 10 6 16 14 14 17 -2 4 19 6 48 6 36 -1 54 -6 59 -16 6 -13 7
-13 7 0 1 9 10 16 21 17 13 1 18 -2 13 -10 -5 -9 -3 -9 8 0 17 14 189 13 189
-2 0 -7 3 -7 8 0 11 16 33 17 50 3 9 -7 13 -8 9 -2 -4 7 5 11 23 12 17 0 30
-4 30 -9 0 -6 -4 -8 -8 -5 -5 3 -9 -1 -9 -8 0 -11 4 -12 18 -3 10 6 16 14 14
17 -2 4 19 6 48 6 36 -1 54 -6 59 -16 6 -13 7 -13 7 0 1 19 51 26 51 7 0 -7 3
-8 8 -2 4 6 17 11 30 13 20 3 27 -7 23 -31 -1 -5 3 -6 8 -2 6 3 8 11 5 19 -5
12 1 15 50 19 13 1 24 4 23 7 -4 10 41 48 49 42 4 -4 4 1 1 10 -3 10 -2 20 3
23 6 4 10 1 10 -6 0 -7 3 -9 6 -6 4 4 1 13 -5 21 -8 9 -8 16 -2 20 5 4 8 15 6
26 -2 11 2 20 8 20 8 0 8 3 2 8 -16 11 -14 74 2 68 7 -3 13 -1 13 4 0 6 -6 10
-13 10 -8 0 -13 16 -13 45 -1 30 2 42 10 38 7 -4 7 -1 -1 8 -16 20 -13 61 4
55 7 -3 13 -1 13 4 0 6 -6 10 -13 10 -8 0 -13 16 -13 45 -1 30 2 42 10 38 7
-4 7 -1 -1 8 -16 20 -13 61 4 55 7 -3 13 -1 13 4 0 6 -6 10 -13 10 -8 0 -13
16 -13 45 -1 30 2 42 10 38 7 -4 7 -1 -1 8 -16 20 -13 61 4 55 7 -3 13 -1 13
4 0 6 -6 10 -14 10 -15 0 -16 16 -2 39 6 9 5 12 -1 8 -6 -4 -9 15 -9 49 0 40
4 53 13 50 7 -3 13 -1 13 4 0 6 -6 10 -14 10 -15 0 -16 16 -2 39 6 9 5 12 -1
8 -7 -4 -10 10 -9 37 0 27 5 42 11 38 5 -3 4 2 -4 11 -7 9 -11 28 -9 42 3 13
0 26 -6 29 -7 3 -6 9 4 16 13 11 13 11 0 7 -8 -2 -21 2 -28 9 -7 8 -9 14 -5
15 4 0 -3 5 -17 10 -20 8 -22 12 -10 20 11 7 8 8 -11 3 -15 -3 -30 -1 -33 5
-4 5 -14 7 -24 4 -15 -6 -16 -5 -2 12 15 18 14 18 -12 1 -27 -17 -47 -8 -32
16 5 7 3 8 -5 4 -7 -5 -10 -13 -8 -20 6 -15 -205 -17 -215 -2 -5 7 -8 7 -8 -1
0 -7 -4 -13 -10 -13 -5 0 -7 8 -3 18 5 14 3 13 -10 -3 -13 -17 -19 -18 -36 -8
-13 8 -22 9 -26 2 -8 -12 -47 -8 -57 6 -5 6 -8 5 -8 -2 0 -7 -4 -13 -9 -13 -6
0 -8 9 -6 20 3 17 -2 30 -6 15z"/>
<path d="M1095 1369 c-4 -6 -5 -12 -2 -15 2 -3 7 2 10 11 7 17 1 20 -8 4z"/>
<path d="M290 1359 c0 -5 5 -7 10 -4 6 3 10 8 10 11 0 2 -4 4 -10 4 -5 0 -10
-5 -10 -11z"/>
<path d="M395 1360 c3 -5 8 -10 11 -10 2 0 4 5 4 10 0 6 -5 10 -11 10 -5 0 -7
-4 -4 -10z"/>
<path d="M815 1360 c3 -5 8 -10 11 -10 2 0 4 5 4 10 0 6 -5 10 -11 10 -5 0 -7
-4 -4 -10z"/>
<path d="M875 1360 c3 -5 8 -10 11 -10 2 0 4 5 4 10 0 6 -5 10 -11 10 -5 0 -7
-4 -4 -10z"/>
<path d="M176 1293 c-6 -14 -5 -15 5 -6 7 7 10 15 7 18 -3 3 -9 -2 -12 -12z"/>
<path d="M1350 1136 c0 -2 8 -10 18 -17 15 -13 16 -12 3 4 -13 16 -21 21 -21
13z"/>
<path d="M110 1076 c0 -2 8 -10 18 -17 15 -13 16 -12 3 4 -13 16 -21 21 -21
13z"/>
<path d="M1356 993 c-4 -10 0 -23 11 -32 15 -15 16 -15 5 0 -7 9 -10 24 -6 33
3 9 4 16 1 16 -3 0 -8 -8 -11 -17z"/>
<path d="M130 840 c0 -5 5 -10 11 -10 5 0 7 5 4 10 -3 6 -8 10 -11 10 -2 0 -4
-4 -4 -10z"/>
<path d="M130 780 c0 -5 5 -10 11 -10 5 0 7 5 4 10 -3 6 -8 10 -11 10 -2 0 -4
-4 -4 -10z"/>
<path d="M125 560 c-3 -6 1 -7 9 -4 18 7 21 14 7 14 -6 0 -13 -4 -16 -10z"/>
<path d="M195 180 c3 -5 8 -10 11 -10 2 0 4 5 4 10 0 6 -5 10 -11 10 -5 0 -7
-4 -4 -10z"/>
<path d="M368 143 c6 -2 9 -10 6 -15 -4 -7 -2 -8 5 -4 13 9 5 26 -12 25 -9 0
-8 -2 1 -6z"/>
<path d="M526 142 c-3 -5 1 -9 9 -9 8 0 12 4 9 9 -3 4 -7 8 -9 8 -2 0 -6 -4
-9 -8z"/>
<path d="M656 134 c-5 -14 -4 -15 9 -4 17 14 19 20 6 20 -5 0 -12 -7 -15 -16z"/>
<path d="M695 140 c-3 -5 -1 -10 4 -10 6 0 11 5 11 10 0 6 -2 10 -4 10 -3 0
-8 -4 -11 -10z"/>
<path d="M766 142 c-3 -5 1 -9 9 -9 8 0 12 4 9 9 -3 4 -7 8 -9 8 -2 0 -6 -4
-9 -8z"/>
<path d="M859 133 c-13 -16 -12 -17 4 -4 16 13 21 21 13 21 -2 0 -10 -8 -17
-17z"/>
<path d="M1006 142 c-3 -5 1 -9 9 -9 8 0 12 4 9 9 -3 4 -7 8 -9 8 -2 0 -6 -4
-9 -8z"/>
</g>
</svg>
